<svg xmlns="http://www.w3.org/2000/svg" viewBox="0 0 1100 520" font-family="system-ui, sans-serif">
  <rect width="1100" height="520" fill="#0a0a0a"/>
  
  <text x="550" y="35" fill="#ffffff" font-size="17" font-weight="bold" text-anchor="middle">Product Development — Execution Inner Loop</text>
  <text x="550" y="55" fill="#666" font-size="11" text-anchor="middle">Architect orchestrates specialists. Human verifies intent. QA codifies correctness.</text>
  
  <!-- Feature Spec -->
  <rect x="30" y="140" width="130" height="60" rx="6" fill="#1e293b" stroke="#14b8a6" stroke-width="2"/>
  <text x="95" y="167" fill="#14b8a6" font-size="12" font-weight="bold" text-anchor="middle">Feature Spec</text>
  <text x="95" y="185" fill="#64748b" font-size="10" text-anchor="middle">PRD + criteria</text>
  
  <line x1="160" y1="170" x2="195" y2="170" stroke="#475569" stroke-width="2"/>
  <polygon points="195,165 205,170 195,175" fill="#475569"/>
  
  <!-- Architect -->
  <rect x="205" y="140" width="130" height="60" rx="6" fill="#1e293b" stroke="#f59e0b" stroke-width="2.5"/>
  <text x="270" y="167" fill="#f59e0b" font-size="12" font-weight="bold" text-anchor="middle">Architect</text>
  <text x="270" y="185" fill="#64748b" font-size="10" text-anchor="middle">Decompose + assign</text>
  
  <!-- Branch lines to FE/Integrator -->
  <line x1="335" y1="170" x2="380" y2="170" stroke="#475569" stroke-width="2"/>
  <line x1="380" y1="170" x2="380" y2="115" stroke="#475569" stroke-width="2"/>
  <line x1="380" y1="170" x2="380" y2="225" stroke="#475569" stroke-width="2"/>
  <line x1="380" y1="115" x2="415" y2="115" stroke="#475569" stroke-width="2"/>
  <line x1="380" y1="225" x2="415" y2="225" stroke="#475569" stroke-width="2"/>
  <polygon points="415,110 425,115 415,120" fill="#475569"/>
  <polygon points="415,220 425,225 415,230" fill="#475569"/>
  
  <!-- Parallel execution box -->
  <rect x="420" y="85" width="200" height="170" rx="8" fill="none" stroke="#475569" stroke-width="1" stroke-dasharray="6,3"/>
  <text x="520" y="102" fill="#475569" font-size="9" text-anchor="middle">PARALLEL EXECUTION</text>
  
  <!-- Frontend Developer -->
  <rect x="430" y="85" width="180" height="60" rx="6" fill="#1e293b" stroke="#f59e0b" stroke-width="2"/>
  <text x="520" y="112" fill="#f59e0b" font-size="12" font-weight="bold" text-anchor="middle">Frontend Developer</text>
  <text x="520" y="130" fill="#64748b" font-size="10" text-anchor="middle">UI tasks · design system</text>
  
  <!-- Integrator -->
  <rect x="430" y="195" width="180" height="60" rx="6" fill="#1e293b" stroke="#f59e0b" stroke-width="2"/>
  <text x="520" y="222" fill="#f59e0b" font-size="12" font-weight="bold" text-anchor="middle">Integrator</text>
  <text x="520" y="240" fill="#64748b" font-size="10" text-anchor="middle">APIs · data · auth flows</text>
  
  <!-- Merge lines to Architect Review -->
  <line x1="610" y1="115" x2="645" y2="115" stroke="#475569" stroke-width="2"/>
  <line x1="610" y1="225" x2="645" y2="225" stroke="#475569" stroke-width="2"/>
  <line x1="645" y1="115" x2="645" y2="170" stroke="#475569" stroke-width="2"/>
  <line x1="645" y1="225" x2="645" y2="170" stroke="#475569" stroke-width="2"/>
  <line x1="645" y1="170" x2="680" y2="170" stroke="#475569" stroke-width="2"/>
  <polygon points="680,165 690,170 680,175" fill="#475569"/>
  
  <!-- Architect Review -->
  <rect x="690" y="140" width="140" height="60" rx="6" fill="#1e293b" stroke="#f59e0b" stroke-width="2.5"/>
  <text x="760" y="167" fill="#f59e0b" font-size="12" font-weight="bold" text-anchor="middle">Architect Review</text>
  <text x="760" y="185" fill="#64748b" font-size="10" text-anchor="middle">Standards check</text>
  
  <!-- Iteration loop back to FE/Integrator -->
  <path d="M 760,205 L 760,310 L 380,310 L 380,255" fill="none" stroke="#e11d48" stroke-width="2"/>
  <polygon points="375,255 380,245 385,255" fill="#e11d48"/>
  <text x="570" y="328" fill="#e11d48" font-size="10" text-anchor="middle">iterate back to implementer if standards not met</text>
  
  <!-- Arrow to Human Verification -->
  <line x1="830" y1="170" x2="870" y2="170" stroke="#475569" stroke-width="2"/>
  <polygon points="870,165 880,170 870,175" fill="#475569"/>
  
  <!-- Human Verification -->
  <rect x="880" y="130" width="200" height="80" rx="6" fill="#1e293b" stroke="#14b8a6" stroke-width="2.5"/>
  <text x="980" y="157" fill="#14b8a6" font-size="12" font-weight="bold" text-anchor="middle">Human Verification</text>
  <text x="980" y="175" fill="#94a3b8" font-size="10" text-anchor="middle">Tech Lead checks intent</text>
  <text x="980" y="191" fill="#94a3b8" font-size="10" text-anchor="middle">and architecture fit</text>
  
  <!-- Arrow down to QA Engineer -->
  <line x1="980" y1="210" x2="980" y2="375" stroke="#475569" stroke-width="2"/>
  <polygon points="975,375 980,385 985,375" fill="#475569"/>
  <text x="995" y="300" fill="#64748b" font-size="10">on approval</text>
  
  <!-- QA Engineer -->
  <rect x="870" y="385" width="220" height="70" rx="6" fill="#1e293b" stroke="#f59e0b" stroke-width="2"/>
  <text x="980" y="412" fill="#f59e0b" font-size="12" font-weight="bold" text-anchor="middle">QA Engineer</text>
  <text x="980" y="430" fill="#64748b" font-size="10" text-anchor="middle">Generates regression + e2e</text>
  <text x="980" y="444" fill="#64748b" font-size="10" text-anchor="middle">tests for verified task</text>
  
  <!-- Cycle close arrow -->
  <path d="M 870,420 L 270,420 L 270,205" fill="none" stroke="#14b8a6" stroke-width="2" stroke-dasharray="4,3"/>
  <polygon points="265,205 270,195 275,205" fill="#14b8a6"/>
  <text x="570" y="438" fill="#14b8a6" font-size="10" text-anchor="middle">next task · close loop after N tasks verified + tested</text>
  
  <!-- Legend -->
  <text x="550" y="488" fill="#475569" font-size="10" text-anchor="middle">Amber = Config Area agents · Teal = Spec Area touchpoints · Red = iteration feedback</text>
</svg>
